<svg xmlns="http://www.w3.org/2000/svg" xmlns:xlink="http://www.w3.org/1999/xlink" version="1.1" id="Your_Icon" x="0px" y="0px" width="100px" height="100px" viewBox="0 0 100 100" enable-background="new 0 0 100 100" xml:space="preserve">
<path d="M76.007,43.94L95,48.298l-52.876,21.87l-25.892-9.197L76.007,43.94z M10.476,47.329c-0.059,0-0.116,0.005-0.175,0.014  c-1.065,0.171-1.728,1.855-1.445,3.678c0.275,1.786,1.411,3.216,2.485,3.05c0.641-0.103,1.01-0.729,1.173-1.094  c0.323-0.721,0.421-1.639,0.274-2.584C12.527,48.703,11.489,47.329,10.476,47.329z M75.766,32.956  c-2.605-4.535-7.236-2.797-7.236-2.797S14.785,39.613,11.987,40c-0.296,0.041-0.556,0.083-0.794,0.125  c3.561,0.475,6.702,4.273,7.478,9.206c0.641,4.079-0.513,7.884-2.723,9.963l56.409-15.885c0.644-0.065,1.865-0.771,1.865-0.771  C76.603,41.479,78.371,37.492,75.766,32.956z M12.403,59.441c-0.215,0.033-0.433,0.051-0.646,0.051  c-3.076,0-5.916-3.307-6.605-7.688c-0.741-4.724,1.304-8.983,4.561-9.496c3.309-0.503,6.515,2.952,7.252,7.64  C17.705,54.671,15.659,58.93,12.403,59.441z M15.4,50.207c-0.526-3.345-2.649-5.867-4.938-5.867c-0.162,0-0.321,0.012-0.476,0.037  c-2.421,0.38-3.931,3.615-3.365,7.211c0.525,3.346,2.647,5.868,4.938,5.868c0.161,0,0.321-0.013,0.475-0.038  c1.195-0.188,2.199-1.054,2.832-2.442C15.481,53.623,15.671,51.931,15.4,50.207z"/>
</svg>